<?xml version="1.0" standalone="no"?><!DOCTYPE svg PUBLIC "-//W3C//DTD SVG 1.1//EN" "http://www.w3.org/Graphics/SVG/1.1/DTD/svg11.dtd"><svg t="1726641214464" class="icon" viewBox="0 0 1024 1024" version="1.1" xmlns="http://www.w3.org/2000/svg" p-id="1393" xmlns:xlink="http://www.w3.org/1999/xlink" width="200" height="200"><path d="M509.184 513.1264m-450.816 0a450.816 450.816 0 1 0 901.632 0 450.816 450.816 0 1 0-901.632 0Z" fill="#aad08f" p-id="1394" data-spm-anchor-id="a313x.manage_type_myprojects.0.i7.53f33a81RXfpOo" class="selected"></path><path d="M446.976 449.2288c70.2464-66.0992 79.872-178.3808 77.056-253.8496-5.12-0.256-10.2912-0.4096-15.5136-0.4096-174.2848 0-315.5968 141.312-315.5968 315.5968 0 7.3728 0.3584 14.6944 0.8704 21.9648 70.0416 4.9152 173.7728-8.5504 253.184-83.3024z" fill="#FFFFFF" p-id="1395"></path><path d="M531.1488 543.9488c76.3392-92.9792 195.0208-111.4624 283.5968-110.0288-28.3648-113.6128-118.2208-202.752-232.2432-230.144 1.8432 86.016-12.4928 209.2544-95.7952 287.6416-82.5856 77.7216-185.856 99.5328-266.4448 99.5328-5.7856 0-11.4688-0.1536-16.9984-0.3584 29.0816 111.36 117.504 198.656 229.376 226.304 1.9968-71.0144 20.3264-177.7152 98.5088-272.9472z" fill="#FFFFFF" p-id="1396"></path><path d="M575.9488 580.7104c-69.888 85.1456-84.2752 183.2448-85.248 244.9408 5.9392 0.3072 11.8784 0.512 17.8688 0.512 174.2848 0 315.5968-141.312 315.5968-315.5968 0-6.0928-0.2048-12.0832-0.5632-18.0736-77.312-2.6112-183.7568 10.3936-247.6544 88.2176z" fill="#FFFFFF" p-id="1397"></path></svg>